<?xml version="1.0" standalone="no"?>
<!DOCTYPE svg PUBLIC "-//W3C//DTD SVG 20010904//EN"
 "http://www.w3.org/TR/2001/REC-SVG-20010904/DTD/svg10.dtd">
<svg version="1.0" xmlns="http://www.w3.org/2000/svg"
 width="435.000000pt" height="435.000000pt" viewBox="0 0 435.000000 435.000000"
 preserveAspectRatio="xMidYMid meet">
<metadata>
Created by potrace 1.11, written by Peter Selinger 2001-2013
</metadata>
<g transform="translate(0.000000,435.000000) scale(0.100000,-0.100000)"
fill="#000000" stroke="none">
<path d="M1985 4299 c-135 -15 -164 -19 -235 -34 -14 -3 -35 -7 -47 -9 -119
-23 -331 -99 -478 -173 -278 -140 -571 -379 -731 -599 -10 -14 -33 -44 -51
-67 -17 -23 -56 -82 -86 -132 -155 -256 -259 -554 -292 -830 -3 -33 -8 -71
-11 -85 -6 -37 -6 -339 0 -380 3 -19 8 -62 11 -95 8 -80 40 -227 75 -345 60
-199 173 -429 299 -605 463 -648 1239 -984 2026 -879 141 19 435 97 524 139
249 119 311 155 466 271 193 144 381 345 514 549 118 183 237 457 276 640 19
88 28 133 30 152 2 12 6 34 9 50 20 103 29 408 14 513 -21 160 -31 219 -40
255 -6 22 -12 47 -13 55 -24 106 -86 281 -143 400 -167 350 -444 664 -778 882
-70 46 -246 138 -334 176 -138 60 -414 130 -580 147 -95 10 -344 12 -425 4z"/>
</g>
</svg>
